<?xml version="1.0" encoding="UTF-8"?>
<svg id="_レイヤー_1" data-name="レイヤー 1" xmlns="http://www.w3.org/2000/svg" viewBox="0 0 177.04 225">
  <defs>
    <style>
      .cls-1 {
        fill: #848484;
      }
    </style>
  </defs>
  <path class="cls-1" d="M97.02,0c5.89,1.51,12.16,1.3,18.21,2.29,24.01,3.93,58.74,18.06,60.84,46.14,3.11,41.6-2.44,87.01,0,129.02-3.76,26.44-31.81,38.73-55.03,43.95l-23.01,3.49c-5.63-.24-11.38.33-17,0-28.1-1.66-77.43-13.62-80.04-48.43-3.12-41.59,2.45-87.02,0-129.02C3.86,14.03,53,1.69,80.02,0h17ZM78.82,23.29c-13.78.99-31.02,4.73-42.71,12.28-13.57,8.76-16.5,17.89-2.41,28.23,25.53,18.75,84.97,18.85,110.24-.41,12.02-9.16,11.35-17.46-.59-26.23-16.23-11.92-44.91-15.27-64.53-13.87ZM153.02,85.96c-39.86,19.84-89.14,19.93-129,0v27.49c0,2.25,5.1,8.31,6.99,10.01,24.03,21.53,91.08,21.45,115.02,0,1.89-1.7,6.99-7.76,6.99-10.01v-27.49ZM153.02,147.93c-6.65,2.11-12.8,5.88-19.47,8.03-26.98,8.7-63.07,8.7-90.07,0-6.66-2.15-12.81-5.92-19.47-8.03v27.49c0,2.98,5.59,9.02,7.99,11.01,24.71,20.48,87.47,20.36,112.49.46,2.53-2.01,8.52-8.36,8.52-11.47v-27.49Z"/>
</svg>