<?xml version="1.0" encoding="UTF-8"?>
<svg id="_レイヤー_1" data-name="レイヤー 1" xmlns="http://www.w3.org/2000/svg" viewBox="0 0 523 77.03">
  <defs>
    <style>
      .cls-1 {
        fill: #1b4400;
      }
    </style>
  </defs>
  <path d="M14.75,3.53l16.5,38.51L48.25,3.53h14l.75.75v56.75h-11.25l-.25-37c-.83-1.01-2.55,3.56-2.74,4-4.22,9.86-7.56,21.33-12.17,30.83-.26.54-.7,1.9-1.31,2l-8.05-.82L12,24.03v37H0V3.53h14.75Z"/>
  <path d="M351.25,3.53l16.51,38.51,16.99-38.51h14.75v57.5h-11.5V23.53l-1.37,1.38-13.97,34.99c-1.07,1.69-6.98.19-9.08.55l-15.58-36.42v37h-12l.75-57.5h14.5Z"/>
  <path d="M455.5,19.28c.75-2.67,9.37-.15,11.68-.68l.69.66c-.75.8-.45,6,.62,5.27,2.78-7.61,13.87-8.02,20.02-4.76,9.42,5,11.52,17.74,9.35,27.37-3.24,14.39-20.2,20.53-29.86,8.39v21.5h-12.5V19.28ZM475.88,27.14c-11.24,1.64-10.43,23.33-1.02,25.28,13.24,2.74,15.36-21.25,4.77-24.77-1.47-.49-2.13-.75-3.76-.51Z"/>
  <path d="M276.75,61.53c-.24-.04-1.19-.53-1.27-.84v-4.15c-.56-.65-3.36,2.77-4.01,3.22-2.7,1.85-7.01,2.44-10.24,2.3-16.12-.69-19.09-20.72-3.56-25.09,3.57-1.01,14.25-1.27,16.09-2.91,3.08-2.74-.77-7-4.05-7.46-2.87-.4-6.2.15-8.21,2.34-.57.62-.88,2.12-.99,2.12h-11c.25-14.41,23.53-16.31,32.25-9.5,2.43,1.9,5.25,6.68,5.25,9.75v29.5l-.75.75c-2.92-.33-6.72.45-9.5,0ZM275,41.53c-3.84,1.41-15.2,1.16-15.99,6.29-1.29,8.31,14.83,8.92,15.99-2.05.15-1.39-.07-2.85,0-4.24Z"/>
  <path d="M446.5,60.78c-.5,1.6-3.39.27-4.3.3-4.37.15-8.11,2.47-6.69-4.28-1.54-1.14-1.49.63-2.24,1.22-9.81,7.8-26.75,4.34-25.78-10.26.62-9.33,9.83-10.95,17.33-12.17,2.77-.45,11.2.43,9.98-4.56-1.4-5.72-9.38-5.62-13.31-2.27-.52.44-1.51,2.27-1.73,2.27h-10c-1.2-.73-.31-2.73.15-3.85,4.96-12.08,29.35-12.63,35.19-1.49.26.5,1.41,2.86,1.41,3.09v32ZM435,41.53c-3.85,1.54-14.79.97-15.89,5.86-1.82,8.06,11.32,8.66,14.65,2.15,1.25-2.45,1.39-5.3,1.24-8Z"/>
  <path d="M109.5,61.03c-2.07-.74-8.97.84-10.18.46-1.43-.44-.64-3.76-.83-4.96-2.8,1.62-4.18,3.79-7.48,4.77-9.25,2.73-20.41-1.09-20.55-12.01-.13-9.76,8.49-12.31,16.43-13.62,3.51-.58,11.36.77,10.52-4.76-1-6.54-12.3-5.43-14.74.04l-9.7-.14c-2.02-1.41,2.21-7.34,3.52-8.54,5.67-5.2,19.15-5.72,25.67-2.15,2.66,1.46,7.34,6.64,7.34,9.66v31.25ZM97.5,41.53c-4.17,1.94-14.54.47-15.4,6.38-1.09,7.51,12.41,8.31,14.88.84.78-2.37.5-4.77.52-7.22Z"/>
  <path d="M188,42.53h-29.25c-1.6,0,.19,5.13.83,6.17,3.22,5.23,10.87,5.89,15.36,2.03.97-.83,1.31-2.52,2.83-2.7l8.89.59c2.05.67-.83,5.06-1.67,6.17-4.57,6.03-11.97,7.77-19.24,7.24-29.62-2.14-24.85-50.24,6.87-43.88,11.62,2.33,16.03,13.52,15.37,24.38ZM158.5,35.53h17.25c1.89,0-.34-4.68-.98-5.52-5.12-6.81-16.96-3.24-16.27,5.52Z"/>
  <path d="M133,7.53v10.5h7.75c1.23,2.23,1.22,7.32,0,9.5h-7.75v22.25c0,2.54,5.24,3.37,7.19,2.28l.57.45,1.22,8.49c-5.75,1.37-13.82,1.77-18.18-3.03-.64-.7-2.8-4.52-2.8-5.2v-25.25l-6-.5v-8.25c1.45-1.47,4.07-.49,6-.75V7.53h12Z"/>
  <rect x="296" y="3.53" width="12" height="57.5"/>
  <path d="M195.5,18.03l11.03.72.72,6.79c2.37-6.72,7.78-8.94,14.53-7.04l-.28,10.03c-4.06-.47-8.75-.86-11.77,2.48-.39.43-2.23,3.55-2.23,3.77v26.25h-12V18.03Z"/>
  <path d="M240,18.53v42.25c0,1.26-2.94.25-3.73.23-2.45-.07-5.16-.18-7.54.4l-.73-.63V18.78l.75-.64c.2-.01.38.39.5.39h10.75Z"/>
  <polygon class="cls-1" points="523 61.03 506.25 61.03 505.5 60.28 505.5 44.78 506.25 44.03 522.25 44.03 523 44.78 523 61.03"/>
  <path d="M238.83,1.71c2.35,2.11,2.46,6.93.2,9.1-4.09,3.91-11.71,1.18-11.57-4.52s7.3-8.23,11.37-4.57Z"/>
</svg>