<?xml version="1.0" encoding="UTF-8"?>
<svg id="_レイヤー_1" data-name="レイヤー 1" xmlns="http://www.w3.org/2000/svg" viewBox="0 0 221 156.37">
  <defs>
    <style>
      .cls-1 {
        fill: #1b4400;
      }
    </style>
  </defs>
  <path class="cls-1" d="M178.2,68.25c2.5-3.69,3.34-6.47,2.16-10.86-.53-1.97-2.3-2.99-.46-5.24L216,0h-20.25l-79.08,60.92c-1.89-.66-3.88-1.4-5.92-1.45-2.91-.08-5.45,1.77-7.94.47L24.75,0H4.5l36.75,53.03c.72,1.83-.93,3.34-1.2,5.26-.63,4.35.51,6.77,2.42,10.46L.22,149.97l-.22,1.53h15.75l56.72-43.82-.43-1.47-5.22-6.65-47.82,36.44,31.98-62.27,4.44-.15c.28.64.42,1.3.86,1.88,13.5,17.98,29.41,39.82,41.24,58.77,3,4.81,1.15,2.65.52,6.54-.89,5.51.94,11.16,6.03,13.91,11.39,6.16,23.2-5.81,17.13-16.94l43.92-64.15,4.07-.02,32.32,62.42-47.34-36.42h-1.09c-.44,1.74-5.76,7.03-5,8.35l56.68,43.57h16.25l-42.8-83.25ZM156.05,62.71c.27,1.93,1.92,3.43,1.2,5.26l-43.75,62.78-6.75-.24-43.63-63.67c5.14-9.27-2.62-20.32-13.1-18.56L27.5,15l70.38,53.61c.43.74.26,5.63-.36,6.67l-14.48,11.56c-.3,1.17,4.73,6.76,5.71,8.15l15.13-11.9c1.31-.32,4.42,1.42,6.37,1.41,1.96-.01,4.03-1.33,5.98-1.51l16,12.01,5.76-7.75-15.03-11.96-.22-6.29L193,15l-22.8,33.38c-8.46-1.41-15.35,5.76-14.15,14.32Z"/>
</svg>